<!DOCTYPE svg PUBLIC "-//W3C//DTD SVG 1.1//EN" "http://www.w3.org/Graphics/SVG/1.1/DTD/svg11.dtd">
<!-- Uploaded to: SVG Repo, www.svgrepo.com, Transformed by: SVG Repo Mixer Tools -->
<svg fill="#000000" height="800px" width="800px" version="1.1" id="Layer_1" xmlns="http://www.w3.org/2000/svg" xmlns:xlink="http://www.w3.org/1999/xlink" viewBox="-51.2 -51.2 614.40 614.40" xml:space="preserve" stroke="#000000">
<g id="SVGRepo_bgCarrier" stroke-width="0">
<path transform="translate(-51.2, -51.2), scale(19.2)" d="M16,30.3649309359883C18.846496178514606,29.385429744971436,18.835485831448228,25.01825205547031,21.353005008463573,23.367779313840902C24.11233728853935,21.558775134272967,28.775822664823266,23.47541453716679,30.650399842656107,20.76020346656644C32.43849253289257,18.17025991812187,31.358881072520106,14.135931855992352,29.45885099731648,11.626954222307983C27.681418517495107,9.279865933835481,23.973825139082802,10.000478355818641,21.408316416324084,8.556091064384084C19.312228543551964,7.375988787473258,18.33528461492177,4.62636709986411,16,4.049590261162896C13.38806764442511,3.4044859867957364,10.189662692183399,3.4609560032715354,8.226238238931746,5.3003348580155C6.278959973854901,7.1245876114906945,7.313468136268665,10.372306704503742,6.528638665392625,12.922568152247276C5.763219605275995,15.409756506941271,3.6109072412881336,17.394587385510434,3.703963719626973,19.995224373087595C3.8132657863743558,23.049874652962075,4.7415438259284794,26.309311797580268,7.078156306071605,28.279864357592785C9.471407607531123,30.298182550670084,13.03966800787179,31.383603904524673,16,30.3649309359883" fill="#4c9999" strokewidth="0"/>
</g>
<g id="SVGRepo_tracerCarrier" stroke-linecap="round" stroke-linejoin="round"/>
<g id="SVGRepo_iconCarrier"> <g> <g> <path d="M427.905,144.064L265.609,3.581c-5.516-4.774-13.7-4.774-19.216,0L84.095,144.064c-3.222,2.788-5.074,6.84-5.074,11.1 v342.155c0,8.108,6.573,14.681,14.681,14.681h324.595c8.108,0,14.681-6.573,14.681-14.681V155.164 C432.978,150.904,431.127,146.853,427.905,144.064z M403.617,425.601H188.496c-8.108,0-14.681,6.573-14.681,14.681 s6.573,14.681,14.681,14.681h215.121v27.676H108.383v-0.001V218.296h215.121c8.108,0,14.681-6.573,14.681-14.681 s-6.573-14.681-14.681-14.681H108.383v-27.061L256,34.098l147.617,127.775V425.601z"/> </g> </g> <g> <g> <path d="M381.228,200.741c-0.191-0.925-0.47-1.85-0.837-2.745c-0.367-0.881-0.822-1.732-1.351-2.525 c-0.543-0.807-1.16-1.556-1.835-2.232c-0.675-0.675-1.424-1.292-2.232-1.835c-0.793-0.529-1.644-0.984-2.525-1.351 c-0.896-0.367-1.82-0.646-2.745-0.837c-1.894-0.382-3.846-0.382-5.74,0c-0.94,0.191-1.864,0.47-2.745,0.837 c-0.896,0.367-1.747,0.822-2.54,1.351c-0.807,0.543-1.556,1.16-2.232,1.835s-1.292,1.424-1.82,2.232 c-0.529,0.793-0.984,1.644-1.351,2.525c-0.367,0.896-0.646,1.82-0.837,2.745c-0.191,0.954-0.294,1.923-0.294,2.877 s0.103,1.923,0.294,2.863c0.191,0.94,0.47,1.864,0.837,2.745c0.367,0.896,0.822,1.747,1.351,2.54 c0.529,0.807,1.145,1.556,1.82,2.232c0.675,0.675,1.424,1.292,2.232,1.82c0.793,0.529,1.644,0.984,2.54,1.351 c0.881,0.367,1.806,0.646,2.745,0.837s1.909,0.294,2.863,0.294s1.923-0.103,2.877-0.294c0.925-0.191,1.85-0.47,2.745-0.837 c0.881-0.367,1.732-0.822,2.525-1.351c0.807-0.529,1.556-1.145,2.232-1.82c0.675-0.675,1.292-1.424,1.835-2.232 c0.529-0.793,0.984-1.644,1.351-2.54c0.367-0.881,0.646-1.806,0.837-2.745s0.279-1.909,0.279-2.863 C381.507,202.664,381.419,201.695,381.228,200.741z"/> </g> </g> <g> <g> <path d="M159.561,437.412c-0.191-0.94-0.47-1.864-0.837-2.745c-0.367-0.881-0.822-1.732-1.351-2.54 c-0.529-0.793-1.145-1.556-1.82-2.232c-0.675-0.675-1.424-1.292-2.232-1.82c-0.793-0.529-1.644-0.984-2.54-1.351 c-0.881-0.367-1.806-0.646-2.745-0.837c-1.894-0.382-3.846-0.382-5.74,0c-0.925,0.191-1.85,0.47-2.745,0.837 c-0.881,0.367-1.732,0.822-2.525,1.351c-0.807,0.529-1.556,1.145-2.232,1.82s-1.292,1.439-1.835,2.232 c-0.529,0.807-0.984,1.659-1.351,2.54c-0.367,0.881-0.646,1.806-0.837,2.745c-0.191,0.954-0.279,1.909-0.279,2.877 c0,0.954,0.088,1.909,0.279,2.863c0.191,0.94,0.47,1.864,0.837,2.745c0.367,0.881,0.822,1.732,1.351,2.525 c0.543,0.807,1.16,1.556,1.835,2.232c0.675,0.69,1.424,1.292,2.232,1.835c0.793,0.528,1.644,0.984,2.525,1.351 c0.896,0.367,1.82,0.646,2.745,0.837c0.954,0.191,1.923,0.294,2.877,0.294c0.954,0,1.923-0.103,2.863-0.294 s1.864-0.47,2.745-0.837c0.896-0.367,1.747-0.822,2.54-1.351c0.807-0.543,1.556-1.145,2.231-1.835 c0.675-0.675,1.292-1.424,1.82-2.232c0.529-0.793,0.984-1.644,1.351-2.525c0.367-0.881,0.646-1.806,0.837-2.745 c0.191-0.954,0.294-1.909,0.294-2.863C159.855,439.321,159.752,438.366,159.561,437.412z"/> </g> </g> <g> <g> <path d="M355.043,295.492c-1.69-31.587-27.246-56.331-58.18-56.331c-17.094,0-31.284,9.469-40.678,18.115 c-9.252-8.685-23.369-18.115-41.054-18.115c-30.934,0-56.489,24.743-58.179,56.334c-1.016,19.053,6.302,32.542,11.897,41.032 c0.474,0.719,0.991,1.462,1.547,2.223c1.111,1.522,2.378,3.123,3.772,4.779c2.091,2.484,4.466,5.096,7.029,7.765 c8.547,8.898,19.197,18.439,28.396,26.05c33.108,27.395,42.484,27.395,46.486,27.395c3.924,0,12.95,0,43.46-24.865 c0.984-0.802,1.991-1.63,3.02-2.485c1.826-1.517,3.71-3.109,5.624-4.761c11.486-9.907,24.058-21.88,31.632-31.513 c1.263-1.606,2.387-3.146,3.344-4.602C348.75,328.007,356.064,314.5,355.043,295.492z M318.627,320.38 c-0.492,0.747-1.083,1.558-1.731,2.403c-0.376,0.489-0.775,0.994-1.199,1.512c-1.147,1.405-2.458,2.907-3.917,4.489 c-14.985,16.274-44.742,40.682-55.667,45.989c-13.169-6.421-53.311-40.089-62.746-54.405c-4.68-7.104-6.846-13.075-7.107-19.802 c-0.006-0.161-0.028-0.317-0.032-0.48c-0.025-0.989-0.009-1.997,0.046-3.026c0.578-10.818,6.879-20.251,15.657-25.088 c3.99-2.199,8.493-3.45,13.203-3.45c12.957-0.001,25.094,13.73,28.64,18.966c2.67,4.023,7.164,6.452,11.993,6.536 c4.805,0.062,9.405-2.236,12.213-6.162c3.588-5.018,16.598-19.342,28.886-19.342c15.071,0,28.018,12.802,28.861,28.54 C326.166,305.282,324.109,312.039,318.627,320.38z"/> </g> </g> <g> <g> <path d="M256,75.658c-27.794,0-50.404,22.612-50.404,50.404c0,27.792,22.612,50.404,50.404,50.404 c27.792,0,50.405-22.61,50.405-50.403C306.405,98.27,283.794,75.658,256,75.658z M256,147.106 c-11.602,0-21.042-9.44-21.042-21.042c0-11.602,9.44-21.042,21.042-21.042s21.042,9.44,21.042,21.042 C277.042,137.666,267.604,147.106,256,147.106z"/> </g> </g> </g>
</svg>