<!DOCTYPE svg PUBLIC "-//W3C//DTD SVG 1.1//EN" "http://www.w3.org/Graphics/SVG/1.1/DTD/svg11.dtd">
<!-- Uploaded to: SVG Repo, www.svgrepo.com, Transformed by: SVG Repo Mixer Tools -->
<svg fill="#000000" height="800px" width="800px" version="1.1" id="Layer_1" xmlns="http://www.w3.org/2000/svg" xmlns:xlink="http://www.w3.org/1999/xlink" viewBox="-51.2 -51.2 614.40 614.40" xml:space="preserve">
<g id="SVGRepo_bgCarrier" stroke-width="0">
<path transform="translate(-51.2, -51.2), scale(19.2)" d="M16,30.607583159482793C19.669219037985826,30.354133838734754,22.32912904653484,27.526475229897652,25.030761431257922,25.030761431257922C27.905459191895037,22.375173310272256,32.045078533532354,19.90667379501059,31.81283869476695,16C31.58288946621315,12.131858211107875,27.31155153958233,10.023121277387078,24.017305841554908,7.982694158445094C21.598164762348084,6.484299225269379,18.82053367722242,6.5825216705520155,16,6.205665315256308C12.389046148807559,5.723199561171971,8.27009704230957,3.1322830284862673,5.509885959400895,5.509885959400892C2.7460449722467333,7.890615633420941,4.608701357379119,12.352225829913731,4.629543312286076,15.999999999999998C4.65017142027485,19.610346526279308,3.411409293271995,23.521891855397485,5.629077761624902,26.370922238375094C8.013606635585134,29.43431756005985,12.12717088757545,30.87509673601107,16,30.607583159482793" fill="#4c9999" strokewidth="0"/>
</g>
<g id="SVGRepo_tracerCarrier" stroke-linecap="round" stroke-linejoin="round"/>
<g id="SVGRepo_iconCarrier"> <g> <g> <path d="M369.27,192.769c7.508-10.506,15.766-22.625,23.502-35.174c2.324-3.769,1.152-8.707-2.618-11.031 c-3.768-2.324-8.708-1.152-11.031,2.618c-15.138,24.556-32.779,47.988-41.911,59.727c-23.798-30.437-68.919-94.268-68.919-123.931 c0-38.015,30.928-68.944,68.944-68.944s68.944,30.928,68.944,68.944c0,6.395-2.329,18.566-13.426,40.22 c-2.019,3.941-0.462,8.771,3.478,10.79c3.942,2.019,8.771,0.462,10.791-3.478c10.223-19.948,15.191-35.496,15.191-47.533 C422.213,38.121,384.092,0,337.236,0s-84.977,38.121-84.977,84.977c0,18.802,12.809,47.773,38.062,86.126 c-10.581-0.263-21.219,0.447-31.598,2.109c-7.011-49.503-49.655-87.701-101.062-87.701c-56.287,0-102.079,45.792-102.079,102.079 c0,32.964,34.096,89.239,61.63,129.31c-1.172,8.105-1.772,16.373-1.772,24.61c0,18.73,3.02,37.143,8.974,54.724 c1.459,4.308,6.365,6.55,10.586,4.863c3.898-1.558,5.944-6.038,4.599-10.008c-5.393-15.92-8.127-32.601-8.127-49.58 c0-1.431,0.044-2.862,0.083-4.295c10.829,14.942,18.726,24.989,19.814,26.366c3.159,4,9.422,4,12.582,0 c1.211-1.533,10.863-13.813,23.607-31.635c0.847,0.304,1.754,0.478,2.704,0.478h8.853l16.814,5.605l-5.604,16.814l-24.873,33.164 c-2.722,3.629-1.806,8.966,1.967,11.48l17.517,11.678l-10.188,10.188c-0.609,0.609-1.116,1.313-1.502,2.083l-7.188,14.376 l-15.622,6.249c-7.66-8.621-14.432-18.159-20.108-28.533c-2.124-3.883-6.995-5.309-10.88-3.185 c-3.884,2.125-5.31,6.996-3.185,10.88c25.319,46.28,70.204,77.74,121.142,86.374c0.32,0.067,0.643,0.122,0.973,0.15 c9.023,1.476,18.228,2.252,27.55,2.252c94.008,0,170.489-76.48,170.489-170.489C456.418,279.555,423.133,222.979,369.27,192.769z M157.662,345.527c-28.838-37.83-86.046-120.588-86.046-157.936c0-47.446,38.6-86.046,86.046-86.046s86.046,38.6,86.046,86.046 C243.708,224.939,186.5,307.697,157.662,345.527z M245.055,456.781c-1.151,1.727-1.588,3.833-1.219,5.876l5.223,28.842 c-24.719-6.076-47.502-18.16-66.345-35.078l12.13-4.853c1.824-0.729,3.316-2.101,4.193-3.858l7.97-15.938l16.182-16.183 c3.523-3.523,2.921-9.577-1.222-12.338l-18.602-12.402l20.569-27.425c0.517-0.689,0.919-1.458,1.192-2.275l8.551-25.653 c1.4-4.2-0.87-8.74-5.071-10.141l-25.653-8.551c-0.818-0.273-1.673-0.411-2.535-0.411h-1.958 c8.424-12.276,17.44-26.043,25.898-40.184l2.66,7.98c0.672,2.017,2.119,3.684,4.02,4.635l15.409,7.705l48.568,64.758v36.764 l-31.856,31.856c-0.373,0.373-0.709,0.782-1.002,1.222L245.055,456.781z M285.929,495.967c-6.745,0-13.423-0.452-20.004-1.31 l-5.736-31.673l14.867-22.301l33.643-33.643c1.504-1.503,2.348-3.542,2.348-5.668v-42.756c0-1.735-0.562-3.423-1.603-4.81 l-51.307-68.409c-0.747-0.996-1.715-1.804-2.828-2.36l-14.132-7.066l-6.057-18.173c-0.028-0.084-0.065-0.162-0.095-0.245 c13.703-25.21,24.057-50.032,24.673-68.256c13.767-2.353,28.1-2.845,42.035-1.431c15.465,22.012,28.63,38.192,29.292,39.002 c3.158,3.87,9.265,3.87,12.423,0c0.542-0.665,7.131-8.765,16.29-21.042c7.174,3.909,13.965,8.316,20.316,13.19 c-22.794,8.639-61.796,20.628-62.271,20.773c-4.175,1.282-6.557,5.668-5.357,9.867l15.807,55.323l-22.317,22.317 c-2.702,2.702-3.121,6.936-1.002,10.115l15.753,23.634v65.982c0,0.862,0.139,1.718,0.411,2.535l8.551,25.653 c0.605,1.816,1.84,3.355,3.48,4.34l28.035,16.82C338.874,488.842,313.219,495.967,285.929,495.967z M376.243,466.731 l-32.339-19.404l-7.202-21.606v-67.108c0-1.582-0.468-3.13-1.347-4.447l-13.456-20.185l21.006-21.006 c2.059-2.059,2.839-5.072,2.039-7.871l-14.951-52.326c14.718-4.617,47.134-14.998,63.707-21.945 c10.311,10.027,19.119,21.396,26.216,33.762l-28.491,28.491c-3.131,3.131-3.131,8.207,0,11.337l12.185,12.185l-21.48,28.643 c-2.393,3.192-2.076,7.658,0.745,10.478l14.754,14.754v13.782c0,2.126,0.844,4.166,2.348,5.668l22.914,22.914 C411.709,434.229,395.669,452.681,376.243,466.731z M413.662,380.947v-13.782c0-2.126-0.844-4.165-2.348-5.668l-12.185-12.185 l21.482-28.643c2.393-3.192,2.076-7.658-0.745-10.478l-11.434-11.434l19.084-19.084c8.354,19.152,12.87,40.132,12.87,61.84 c0,19.646-3.694,38.444-10.413,55.745L413.662,380.947z"/> </g> </g> <g> <g> <path d="M337.236,42.756c-23.28,0-42.221,18.941-42.221,42.221c0,23.28,18.941,42.221,42.221,42.221 c23.281,0,42.221-18.941,42.221-42.221C379.457,61.697,360.516,42.756,337.236,42.756z M337.236,111.165 c-14.44,0-26.188-11.748-26.188-26.188s11.748-26.188,26.188-26.188s26.188,11.748,26.188,26.188S351.676,111.165,337.236,111.165 z"/> </g> </g> <g> <g> <path d="M336.092,81.909c-1.239-2.936-4.145-4.903-7.337-4.941c-3.438-0.041-6.612,2.225-7.677,5.495 c-1.018,3.125-0.018,6.615,2.524,8.708c2.672,2.2,6.572,2.403,9.465,0.515C336.279,89.589,337.509,85.449,336.092,81.909z"/> </g> </g> <g> <g> <path d="M341.669,78.099c-3.385,2.029-4.749,6.301-3.289,9.946c1.317,3.12,4.511,5.146,7.908,4.932 c3.15-0.198,5.991-2.315,7.045-5.297C355.785,80.743,347.987,74.311,341.669,78.099z"/> </g> </g> <g> <g> <path d="M157.662,128.267c-32.711,0-59.324,26.612-59.324,59.324s26.612,59.324,59.324,59.324s59.324-26.612,59.324-59.324 S190.373,128.267,157.662,128.267z M157.662,230.881c-23.871,0-43.29-19.42-43.29-43.29s19.42-43.29,43.29-43.29 s43.29,19.42,43.29,43.29S181.532,230.881,157.662,230.881z"/> </g> </g> <g> <g> <path d="M165.505,185.942c-0.776-3.66-4.099-6.367-7.844-6.367c-7.372,0-10.788,9.575-5.048,14.238 C158.325,198.451,167.042,193.19,165.505,185.942z"/> </g> </g> <g> <g> <path d="M186.383,180.183c-2.979-1.193-6.452-0.538-8.733,1.742c-2.417,2.415-3.031,6.212-1.493,9.266 c1.439,2.856,4.555,4.635,7.748,4.39c3.554-0.272,6.567-2.922,7.266-6.421C191.916,185.442,189.867,181.653,186.383,180.183z"/> </g> </g> <g> <g> <path d="M139.416,184.523c-2.668-6.325-11.943-6.531-14.727-0.18c-1.414,3.226-0.55,7.079,2.143,9.362 c2.531,2.146,6.236,2.494,9.125,0.858C139.454,192.585,140.902,188.236,139.416,184.523z"/> </g> </g> </g>
</svg>